<?xml version="1.0" encoding="utf-8"?>
<!-- Generator: Adobe Illustrator 22.1.0, SVG Export Plug-In . SVG Version: 6.00 Build 0)  -->
<svg version="1.1" id="SignetSchriftzug_White_Trackbar"
	 xmlns="http://www.w3.org/2000/svg" xmlns:xlink="http://www.w3.org/1999/xlink" x="0px" y="0px" viewBox="0 0 481.4 156.7"
	 style="enable-background:new 0 0 481.4 156.7;" xml:space="preserve">
<style type="text/css">
	.st0{fill:#FFFFFF;}
</style>
<g>
	<path class="st0" d="M78.4,0C35.2,0,0,35.2,0,78.4c0,43.2,35.2,78.4,78.4,78.4s78.4-35.2,78.4-78.4C156.7,35.2,121.6,0,78.4,0z
		 M86.5,145.2c-4.2-0.3-7.4-1.2-9.5-2.6c-2.7-1.8-4-5-4-9.4c0-2.1,0.3-4.4,0.7-6.9l12-62.4l29-0.1l0,0l4.5-22.2h-29l-4.5,22.3
		l-28.4,0l-12,62c-0.7,3.3-1.1,6.8-1.2,10.5C24.3,124.6,11,103,11,78.4C11,45,35.3,17.3,67.1,11.9l-5.6,29.6h24.2v0l4.5,0l5.4-28.3
		c28.8,7.6,50.1,33.9,50.1,65.1C145.7,112.8,119.8,141.2,86.5,145.2z"/>
	<g>
		<path class="st0" d="M273.1,61.7l-10.8-18.8h-2.8v18.8h-12.1V11.8h20.6c4,0,7.3,0.7,10,2c2.7,1.4,4.8,3.2,6.1,5.6
			c1.4,2.4,2,5.1,2,8.1c0,3.6-1,6.7-3,9.2c-2,2.5-4.9,4.3-8.7,5.2l11.9,19.6H273.1z M259.6,34.6h7.5c2.4,0,4.2-0.5,5.3-1.6
			c1.1-1.1,1.7-2.6,1.7-4.7c0-2-0.6-3.5-1.7-4.7c-1.2-1.1-2.9-1.7-5.3-1.7h-7.5V34.6z"/>
		<path class="st0" d="M337.4,52.5h-18.7l-3.1,9.1h-12.7l18.3-49.5h13.9l18.3,49.5h-12.8L337.4,52.5z M334.3,43.4L328.1,25
			l-6.3,18.3H334.3z"/>
		<path class="st0" d="M408.8,16.3c4.2,3.3,6.9,7.9,8.1,13.5h-12.8c-0.9-2.3-2.4-4.1-4.3-5.4c-2-1.3-4.3-2-6.9-2
			c-3.5,0-6.4,1.3-8.5,3.9c-2.2,2.6-3.2,6-3.2,10.4c0,4.3,1.1,7.8,3.2,10.3c2.2,2.6,5,3.8,8.5,3.8c2.7,0,5-0.7,6.9-2
			c2-1.3,3.4-3.1,4.3-5.4h12.8c-1.2,5.6-3.9,10.1-8.1,13.5s-9.4,5-15.8,5c-4.8,0-9.1-1.1-12.8-3.2c-3.7-2.1-6.5-5.1-8.5-9
			c-2-3.9-3-8.3-3-13.2s1-9.3,3-13.2c2-3.9,4.8-6.9,8.5-9s7.9-3.2,12.8-3.2C399.4,11.3,404.7,12.9,408.8,16.3z"/>
		<path class="st0" d="M461.3,36.2l20.1,25.5h-14.6l-16.9-22.4v22.4h-12.1V11.8h12.1v21.9l17.1-21.9h14.5L461.3,36.2z"/>
		<path class="st0" d="M229.6,125c1.8,2.2,2.6,4.8,2.6,7.7c0,4.3-1.4,7.6-4.3,10c-2.8,2.4-6.9,3.6-12.2,3.6h-23.2V96.4h22.6
			c5.1,0,9,1.1,11.8,3.3c2.8,2.2,4.2,5.4,4.2,9.5c0,3-0.8,5.5-2.4,7.5c-1.6,2-3.7,3.3-6.3,3.9C225.4,121.3,227.8,122.8,229.6,125z
			 M204.6,116.8h7.9c4.2,0,6.3-1.8,6.3-5.4s-2.1-5.4-6.4-5.4h-7.8V116.8z M219.9,131c0-1.8-0.6-3.2-1.8-4.2c-1.2-1-2.8-1.5-5-1.5
			h-8.5v11.2h8.6C217.6,136.5,219.9,134.7,219.9,131z"/>
		<path class="st0" d="M283.6,137.2h-18.7l-3.1,9.1h-12.7l18.3-49.5h13.9l18.3,49.5h-12.8L283.6,137.2z M280.5,128l-6.2-18.3
			L268,128H280.5z"/>
		<g>
			<rect x="189.3" y="11.8" class="st0" width="39.1" height="9.6"/>
			<rect x="202.7" y="30.8" class="st0" width="12.1" height="30.8"/>
		</g>
		<path class="st0" d="M346,126.7c3.8-0.9,6.7-2.7,8.7-5.2c2-2.5,3-5.6,3-9.2c0-3.1-0.7-5.8-2-8.1c-1.4-2.4-3.4-4.2-6.1-5.6
			c-2.7-1.4-6.1-2-10-2h-20.6v10.2l19.5,0c2.4,0,4.1,0.6,5.3,1.7c1.2,1.1,1.7,2.7,1.7,4.7c0,2.1-0.6,3.6-1.7,4.7
			c-1.1,1.1-2.9,1.6-5.3,1.6h-7.5v-3.2h-12.1v30.3h12.1v-18.8h2.8l10.8,18.8h13.3L346,126.7z"/>
	</g>
</g>
</svg>
